<svg width="94" height="100" viewBox="0 0 94 100" fill="none" xmlns="http://www.w3.org/2000/svg">
<path fill-rule="evenodd" clip-rule="evenodd" d="M45.9093 0.257338C45.583 0.398957 43.8921 1.43743 42.1519 2.56491C30.2067 10.3035 17.7389 15.0129 5.46779 16.4213C2.186 16.798 0.618172 17.9339 0.105386 20.3059C-0.176617 21.6115 0.144937 31.0063 0.625093 35.4869C2.50715 53.0455 7.34431 67.5443 14.917 78.3248C17.1137 81.4517 18.6612 83.2717 21.5777 86.1576C28.0153 92.528 34.5595 96.447 43.5362 99.3071C46.4353 100.231 47.5586 100.231 50.4577 99.3071C57.1571 97.1725 62.3103 94.5112 67.7389 90.3824C69.7551 88.849 74.5116 84.2159 76.204 82.1368C85.4847 70.7358 91.1272 55.5237 93.28 36.0991C93.8337 31.1024 94.1944 21.7295 93.8877 20.3059C93.3767 17.9343 91.8083 16.798 88.5261 16.4213C75.9145 14.9738 63.0649 10.0275 50.7737 1.8885C47.8212 -0.0665873 47.163 -0.287232 45.9093 0.257338Z" fill="#200E32"/>
<path d="M63 40L41 62L31 52" stroke="white" stroke-width="5" stroke-linecap="round" stroke-linejoin="round"/>
</svg>
