<svg width="20" height="20" viewBox="0 0 20 20" fill="none" xmlns="http://www.w3.org/2000/svg">
<path fill-rule="evenodd" clip-rule="evenodd" d="M11.1437 0.0445361C11.15 0.0777294 11.1443 0.0949563 11.1271 0.0949563C11.1126 0.0949563 11.1363 0.120186 11.1797 0.151019C11.2231 0.181851 11.3395 0.264624 11.4384 0.334973C11.9193 0.67707 12.5502 1.21663 12.9269 1.60808C13.5247 2.22937 14.1811 3.14618 14.6169 3.96853C14.6804 4.08846 14.7534 4.22037 14.7789 4.26163L14.8254 4.33666H16.5301C17.4677 4.33666 18.24 4.33145 18.2463 4.32509C18.2699 4.30154 17.9067 3.81547 17.5727 3.42345C17.1357 2.91044 16.4791 2.29738 15.9438 1.90226C14.6286 0.931632 13.1736 0.319566 11.577 0.0652644C11.4019 0.0373732 11.2305 0.0099422 11.1963 0.00433995C11.1387 -0.00512384 11.1348 -0.00216266 11.1437 0.0445361ZM8.46139 0.049278C8.42843 0.0538798 8.2621 0.0844921 8.09177 0.117325C6.44696 0.434332 4.91854 1.16256 3.58635 2.26397C3.25951 2.53419 2.53536 3.26607 2.26322 3.60122C2.04762 3.86675 1.75821 4.25801 1.75821 4.284C1.75821 4.29096 2.48186 4.29664 3.3663 4.29664H4.97436L5.03732 4.17159C5.74747 2.76068 6.9434 1.36036 8.31508 0.333612C8.44341 0.237553 8.5755 0.142936 8.60864 0.123328C8.66339 0.0909347 8.66581 0.0853324 8.63508 0.061943C8.60105 0.0360527 8.5717 0.0339118 8.46139 0.049278ZM10.3695 2.62367V4.29664H11.9585C13.4764 4.29664 13.5468 4.29504 13.5286 4.26101C13.5181 4.2414 13.4022 4.06359 13.2709 3.86585C12.9 3.30686 12.5063 2.81042 12.0681 2.34922C11.6505 1.90962 10.918 1.30212 10.4244 0.985893L10.3695 0.950699V2.62367ZM9.1407 1.18077C8.70357 1.47299 8.24949 1.85948 7.79208 2.32869C7.42201 2.70828 7.13726 3.0481 6.83015 3.47663C6.63707 3.74602 6.3336 4.22071 6.30269 4.30164C6.29004 4.3348 6.36952 4.33666 7.80055 4.33666C8.99114 4.33666 9.31381 4.33135 9.32132 4.31165C9.32655 4.2979 9.32851 3.56077 9.32568 2.67361L9.32052 1.06056L9.1407 1.18077ZM0.961063 5.65841C0.468024 6.69068 0.149748 7.82768 0.0304291 8.98296C0.0136861 9.14494 0 9.31377 0 9.35811V9.4387H1.80816H3.61632V9.34146C3.61632 9.08176 3.73222 8.16639 3.82811 7.66893C3.96089 6.97996 4.22009 6.07515 4.45733 5.47241C4.47829 5.41915 4.49543 5.37143 4.49543 5.36633C4.49543 5.36123 3.73258 5.35707 2.80021 5.35707H1.105L0.961063 5.65841ZM10.3695 7.39788V9.4387H12.7078H15.0461L15.0357 9.34366C15.03 9.29138 15.0156 9.13608 15.0039 8.99853C14.9075 7.87377 14.6114 6.65551 14.1809 5.61233L14.0757 5.35739L12.2226 5.35723L10.3695 5.35707V7.39788ZM15.2845 5.36633C15.2845 5.37143 15.3016 5.41915 15.3226 5.47241C15.7519 6.56327 16.0576 7.95893 16.155 9.27364L16.1687 9.45871H18.0844H20L19.9902 9.35367C19.9848 9.2959 19.9706 9.14058 19.9588 9.00853C19.859 7.89652 19.5271 6.70106 19.0298 5.66219L18.8837 5.35707H17.0841C16.0943 5.35707 15.2845 5.36123 15.2845 5.36633ZM5.70286 5.4521C5.18535 6.67173 4.85462 8.02818 4.78332 9.22362L4.76927 9.45871H7.04989H9.33051V7.41789V5.37707H7.5326H5.73471L5.70286 5.4521ZM0.000179816 10.5741C0.000419572 10.7054 0.0718469 11.3378 0.119978 11.6346C0.264511 12.5263 0.566504 13.5138 0.936767 14.3057L1.01862 14.4807H2.69376C3.61508 14.4807 4.37351 14.4761 4.37915 14.4704C4.3848 14.4648 4.33659 14.3056 4.272 14.1166C3.92848 13.1113 3.70679 11.9821 3.63057 10.8493L3.60633 10.4891L1.80317 10.484L0 10.4789L0.000179816 10.5741ZM16.1747 10.504C16.1706 10.5178 16.1569 10.6867 16.1444 10.8793C16.0732 11.9742 15.8613 13.0439 15.5047 14.11C15.4385 14.3077 15.3844 14.472 15.3844 14.4752C15.3844 14.4784 16.1913 14.4786 17.1775 14.4758L18.9707 14.4707L19.0346 14.3407C19.3085 13.7833 19.593 12.9722 19.7504 12.2999C19.8718 11.7813 19.9663 11.1126 19.9837 10.6492L19.9897 10.4891L18.086 10.484C16.5728 10.48 16.1808 10.4841 16.1747 10.504ZM4.78242 10.7842C4.83884 11.9047 5.12814 13.2288 5.53981 14.2506L5.62848 14.4707H7.4745H9.32052L9.32562 12.4949L9.33071 10.5191H7.04989H4.76907L4.78242 10.7842ZM10.3495 12.4999V14.4807H12.2473H14.1451L14.1764 14.4057C14.2702 14.1812 14.4611 13.6289 14.5542 13.3122C14.7916 12.5048 14.9542 11.5777 15.001 10.7642L15.0152 10.5191H12.6823H10.3495V12.4999ZM1.83597 15.8263C2.32633 16.5521 2.89082 17.1752 3.58693 17.7591C4.96431 18.9144 6.59465 19.6567 8.40535 19.9528C8.67698 19.9973 8.71482 19.9775 8.55742 19.8733C7.8861 19.429 6.97734 18.5879 6.32914 17.8109C5.84571 17.2313 5.32269 16.435 4.96014 15.7265L4.84507 15.5016L3.23069 15.5014L1.61632 15.5011L1.83597 15.8263ZM6.19662 15.6021C6.30709 15.7989 6.63725 16.3216 6.78686 16.5366C7.39382 17.4086 8.35914 18.3781 9.16478 18.9248C9.24396 18.9786 9.31363 19.0225 9.31962 19.0225C9.32561 19.0225 9.33051 18.2347 9.33051 17.2718V15.5211H7.74085H6.15118L6.19662 15.6021ZM10.3495 17.313C10.3495 18.7415 10.3545 19.1018 10.3744 19.0895C10.764 18.849 11.3499 18.3613 11.8604 17.8525C12.5355 17.1795 13.011 16.5803 13.4841 15.8063C13.5732 15.6606 13.6461 15.5368 13.6461 15.5312C13.6461 15.5257 12.9044 15.5211 11.9978 15.5211H10.3495V17.313ZM14.8475 15.6562C14.6771 16.0054 14.3551 16.5591 14.1009 16.9398C13.3087 18.1265 12.3541 19.099 11.2084 19.8866L11.1012 19.9603L11.1569 19.9858C11.2031 20.0069 11.2544 20.0052 11.4554 19.9761C12.8707 19.7712 14.2541 19.241 15.4843 18.4318C16.4499 17.7966 17.2894 17.0037 18.0043 16.0514C18.16 15.8439 18.3613 15.5511 18.3613 15.532C18.3613 15.526 17.5856 15.5211 16.6374 15.5211H14.9134L14.8475 15.6562Z" fill="#200E32"/>
</svg>
