<svg width="24" height="24" viewBox="0 0 24 24" fill="none" xmlns="http://www.w3.org/2000/svg">
<path fill-rule="evenodd" clip-rule="evenodd" d="M12 22.1539C17.6078 22.1539 22.1538 17.6078 22.1538 12C22.1538 6.39219 17.6078 1.84616 12 1.84616C6.39216 1.84616 1.84613 6.39219 1.84613 12C1.84613 17.6078 6.39216 22.1539 12 22.1539ZM10.0195 8.09132C9.52311 8.55826 9.26019 9.16824 9.23074 9.92124H10.5369C10.5664 9.5174 10.7136 9.19769 10.9786 8.96211C11.2437 8.72233 11.5928 8.60243 12.0261 8.60243C12.4552 8.60243 12.8001 8.71602 13.061 8.94318C13.3218 9.16614 13.4522 9.45219 13.4522 9.80135C13.4522 10.1169 13.3765 10.3819 13.225 10.5964C13.0736 10.8068 12.8044 11.0276 12.4173 11.259C11.9756 11.524 11.658 11.8122 11.4645 12.1235C11.271 12.4306 11.1827 12.8071 11.1995 13.253L11.2058 13.7325H12.512V13.3539C12.512 13.0342 12.5856 12.7734 12.7328 12.5715C12.8801 12.3654 13.1556 12.1424 13.5595 11.9026C14.4429 11.3726 14.8846 10.6532 14.8846 9.74456C14.8846 9.05466 14.6259 8.48885 14.1084 8.04714C13.5952 7.60544 12.9242 7.38458 12.0955 7.38458C11.2079 7.38458 10.5159 7.62016 10.0195 8.09132ZM11.9378 16.7109C12.228 16.7109 12.4615 16.6226 12.6382 16.4459C12.8191 16.2692 12.9095 16.0378 12.9095 15.7518C12.9095 15.4573 12.8191 15.2217 12.6382 15.045C12.4615 14.8684 12.228 14.78 11.9378 14.78C11.6475 14.78 11.4119 14.8705 11.231 15.0514C11.0501 15.228 10.9597 15.4615 10.9597 15.7518C10.9597 16.0378 11.0501 16.2692 11.231 16.4459C11.4119 16.6226 11.6475 16.7109 11.9378 16.7109Z" fill="#200E32"/>
</svg>
