<svg width="76" height="80" viewBox="0 0 76 80" fill="none" xmlns="http://www.w3.org/2000/svg">
<path fill-rule="evenodd" clip-rule="evenodd" d="M37.1181 0.20587C36.8543 0.319166 35.4873 1.14995 34.0802 2.05193C24.4224 8.2428 14.3421 12.0103 4.42076 13.137C1.7674 13.4384 0.499799 14.3471 0.0852058 16.2447C-0.142796 17.2892 0.117183 24.8051 0.505395 28.3895C2.02706 42.4364 5.93795 54.0354 12.0606 62.6598C13.8366 65.1614 15.0878 66.6173 17.4458 68.9261C22.6507 74.0224 27.9418 77.1576 35.1995 79.4457C37.5434 80.1848 38.4516 80.1848 40.7956 79.4457C46.2122 77.738 50.3785 75.609 54.7677 72.3059C56.3977 71.0792 60.2434 67.3727 61.6117 65.7094C69.1153 56.5887 73.6773 44.4189 75.4178 28.8793C75.8655 24.8819 76.1572 17.3836 75.9092 16.2447C75.496 14.3475 74.228 13.4384 71.5743 13.137C61.3776 11.979 50.9887 8.022 41.0511 1.5108C38.6639 -0.0532698 38.1318 -0.229785 37.1181 0.20587Z" fill="#200E32"/>
<path d="M50 32.5L33.5 49L26 41.5" stroke="white" stroke-width="4" stroke-linecap="round" stroke-linejoin="round"/>
</svg>
