<svg width="50" height="50" viewBox="0 0 50 50" fill="none" xmlns="http://www.w3.org/2000/svg">
<circle cx="25" cy="25" r="25" fill="#009CDF" fill-opacity="0.15"/>
<path fill-rule="evenodd" clip-rule="evenodd" d="M16.5 23.3178C16.5 18.7179 20.3439 15 24.9934 15C29.6561 15 33.5 18.7179 33.5 23.3178C33.5 25.6357 32.657 27.7876 31.2695 29.6116C29.7388 31.6235 27.8522 33.3765 25.7285 34.7524C25.2425 35.0704 24.8039 35.0944 24.2704 34.7524C22.1347 33.3765 20.2481 31.6235 18.7305 29.6116C17.342 27.7876 16.5 25.6357 16.5 23.3178ZM22.1942 23.5768C22.1942 25.1177 23.4517 26.3297 24.9934 26.3297C26.5362 26.3297 27.8058 25.1177 27.8058 23.5768C27.8058 22.0478 26.5362 20.7768 24.9934 20.7768C23.4517 20.7768 22.1942 22.0478 22.1942 23.5768Z" fill="#009CDF"/>
</svg>
